<svg xmlns="http://www.w3.org/2000/svg" width="400" height="400" viewBox="0 0 400 400">
  <rect width="400" height="400" fill="#1a2e1a"/>
  <!-- Tomato leaf - compound shape with lobes -->
  <path d="M200,35 Q240,60 265,100 Q285,140 280,180 Q300,170 320,185 Q335,200 320,220 Q300,235 280,225 Q275,260 255,290 Q235,315 200,330 Q165,315 145,290 Q125,260 120,225 Q100,235 80,220 Q65,200 80,185 Q100,170 120,180 Q115,140 135,100 Q160,60 200,35Z" fill="#3d6b2e" stroke="#2d5b1e" stroke-width="1.5"/>
  <!-- Leaf veins -->
  <line x1="200" y1="45" x2="200" y2="325" stroke="#2d5b1e" stroke-width="2" opacity="0.6"/>
  <path d="M200,100 Q160,120 130,150" fill="none" stroke="#2d5b1e" stroke-width="1.2" opacity="0.4"/>
  <path d="M200,100 Q240,120 270,150" fill="none" stroke="#2d5b1e" stroke-width="1.2" opacity="0.4"/>
  <path d="M200,170 Q155,195 125,215" fill="none" stroke="#2d5b1e" stroke-width="1.2" opacity="0.4"/>
  <path d="M200,170 Q245,195 275,215" fill="none" stroke="#2d5b1e" stroke-width="1.2" opacity="0.4"/>
  <path d="M200,240 Q170,265 150,285" fill="none" stroke="#2d5b1e" stroke-width="1.2" opacity="0.4"/>
  <path d="M200,240 Q230,265 250,285" fill="none" stroke="#2d5b1e" stroke-width="1.2" opacity="0.4"/>
  <!-- Late blight patches - irregular dark brown/black water-soaked lesions -->
  <path d="M160,100 Q170,85 185,90 Q195,100 190,115 Q180,125 165,120 Q155,110 160,100Z" fill="#2a1a10" opacity="0.9"/>
  <path d="M155,95 Q168,78 190,85 Q200,100 195,120 Q182,132 160,125 Q148,112 155,95Z" fill="#3a2515" opacity="0.3"/>
  <path d="M230,150 Q250,140 260,155 Q265,175 250,185 Q235,188 225,175 Q220,160 230,150Z" fill="#2a1a10" opacity="0.85"/>
  <path d="M225,145 Q252,132 268,152 Q272,180 252,192 Q232,195 218,178 Q212,158 225,145Z" fill="#3a2515" opacity="0.25"/>
  <path d="M170,200 Q185,185 200,190 Q210,205 205,225 Q190,235 175,225 Q165,215 170,200Z" fill="#2a1a10" opacity="0.9"/>
  <path d="M165,195 Q188,178 208,186 Q218,208 210,232 Q192,242 170,230 Q158,218 165,195Z" fill="#3a2515" opacity="0.28"/>
  <path d="M145,260 Q155,248 170,252 Q178,265 172,278 Q160,285 148,275 Q140,268 145,260Z" fill="#2a1a10" opacity="0.8"/>
  <path d="M240,240 Q255,230 265,240 Q268,255 258,265 Q245,268 238,258 Q235,248 240,240Z" fill="#2a1a10" opacity="0.85"/>
  <path d="M290,195 Q305,188 312,200 Q310,215 298,218 Q288,212 285,200Z" fill="#3a2515" opacity="0.75"/>
  <path d="M100,200 Q112,190 120,198 Q122,212 112,218 Q100,215 96,205Z" fill="#3a2515" opacity="0.7"/>
  <!-- White mold edges on some lesions -->
  <path d="M190,115 Q195,118 192,122" fill="none" stroke="rgba(255,255,255,0.3)" stroke-width="1.5"/>
  <path d="M250,185 Q255,188 252,192" fill="none" stroke="rgba(255,255,255,0.3)" stroke-width="1.5"/>
  <path d="M205,225 Q208,228 205,232" fill="none" stroke="rgba(255,255,255,0.25)" stroke-width="1.5"/>
  <!-- Leaf edge browning -->
  <path d="M265,100 Q285,140 280,180" fill="none" stroke="#4a3520" stroke-width="4" opacity="0.5"/>
  <path d="M135,100 Q115,140 120,180" fill="none" stroke="#4a3520" stroke-width="4" opacity="0.45"/>
  <!-- Label -->
  <rect x="95" y="365" width="210" height="28" rx="6" fill="rgba(0,0,0,0.6)"/>
  <text x="200" y="384" text-anchor="middle" fill="white" font-family="Arial,sans-serif" font-size="13" font-weight="bold">Tomato Late Blight</text>
</svg>